<?xml version="1.0" encoding="utf-8"?>
<!-- Generator: Adobe Illustrator 24.2.1, SVG Export Plug-In . SVG Version: 6.00 Build 0)  -->
<svg version="1.1" id="Layer_1" xmlns="http://www.w3.org/2000/svg" xmlns:xlink="http://www.w3.org/1999/xlink" x="0px" y="0px"
	 viewBox="0 0 512 512" style="enable-background:new 0 0 512 512;" xml:space="preserve">
<style type="text/css">
	.st0{fill:url(#SVGID_1_);}
</style>
<linearGradient id="SVGID_1_" gradientUnits="userSpaceOnUse" x1="157.1804" y1="331.9305" x2="445.6179" y2="120.2662">
	<stop  offset="0" style="stop-color:#0D0F1D"/>
	<stop  offset="0.9291" style="stop-color:#211E36"/>
</linearGradient>
<path class="st0" d="M230.76,160.96c10.13-9.07,21.45-15.62,33.94-19.66c12.49-4.05,24.94-6.07,37.35-6.07
	c12.93,0,25.25,1.98,36.96,5.95c11.7,3.96,21.58,8.37,29.62,13.23c8.73,5.01,16.42,10.11,23.07,15.29
	c6.64,5.18,12.4,9.79,17.3,13.84h8.91V98.57c-7.17-3.08-15.47-6.6-24.9-10.56c-9.44-3.97-19.14-7.32-29.1-10.07
	c-1.95-0.54-3.84-1.03-5.75-1.53l7.17-59.96l-49.59-5.93l-6.88,57.55c-6.92-0.38-14.69-0.57-23.33-0.57
	c-5.32,0-10.53,0.14-15.65,0.41l7.41-61.98L227.71,0l-9.09,76.05c-28.27,7.97-52.45,21.49-72.53,40.6
	c-34.43,32.77-51.64,78.85-51.64,138.24c0,57.29,17.25,102.96,51.77,137.03c6.3,6.22,13,11.86,20.1,16.94l-10.36,86.67l49.59,5.93
	l8.24-68.9c11.92,3.85,24.58,6.63,38,8.35L244,506.07l49.59,5.93l8.28-69.29c9.27-0.37,17.89-1.07,25.87-2.11
	c12.4-1.62,24.29-3.88,35.65-6.8c8.91-2.43,18.61-5.75,29.1-9.95c10.48-4.21,18.96-7.85,25.43-10.92v-86.17h-9.96
	c-4.72,3.88-10.66,8.53-17.82,13.96c-7.17,5.42-15.29,10.72-24.38,15.9c-9.09,5.18-19.1,9.59-30.01,13.23
	c-10.92,3.64-22.33,5.46-34.21,5.46c-14.15,0-27.13-2.06-38.93-6.19c-11.8-4.13-23.03-11.29-33.68-21.48
	c-9.79-9.22-17.78-21.69-23.98-37.38c-6.21-15.7-9.31-34.23-9.31-55.59c0-22.5,3.23-41.39,9.7-56.68
	C211.79,182.68,220.27,170.34,230.76,160.96z"/>
</svg>
