<svg xmlns="http://www.w3.org/2000/svg" xmlns:xlink="http://www.w3.org/1999/xlink" id="Layer_1" x="0" y="0" version="1.1" viewBox="0 0 600 160" xml:space="preserve" style="enable-background:new 0 0 600 160"><style type="text/css">.st0{fill:url(#SVGID_1_)}.st1{fill:url(#SVGID_2_)}.st2{fill:url(#SVGID_3_)}.st3{fill:url(#SVGID_4_)}.st4{fill:url(#SVGID_5_)}.st5{fill:url(#SVGID_6_)}.st6{fill:url(#SVGID_7_)}.st7{fill:url(#SVGID_8_)}.st8{fill:url(#SVGID_9_)}.st9{fill:url(#SVGID_10_)}</style><linearGradient id="SVGID_1_" x1="17.501" x2="97.974" y1="64.762" y2="123.816" gradientTransform="matrix(1 0 0 -1 0 162)" gradientUnits="userSpaceOnUse"><stop offset="0" style="stop-color:#0d0f1d"/><stop offset=".929" style="stop-color:#211e36"/></linearGradient><path d="M38.03,49.54c2.83-2.53,5.98-4.36,9.47-5.49c3.48-1.13,6.96-1.69,10.42-1.69c3.61,0,7.04,0.55,10.31,1.66	c3.26,1.1,6.02,2.34,8.26,3.69c2.44,1.4,4.58,2.82,6.44,4.27c1.85,1.45,3.46,2.73,4.83,3.86h2.49V32.13c-2-0.86-4.32-1.84-6.95-2.95	c-2.63-1.11-5.34-2.04-8.12-2.81c-0.54-0.15-1.07-0.29-1.6-0.43l2-16.73L61.74,7.57l-1.92,16.06c-1.93-0.11-4.1-0.16-6.51-0.16	c-1.48,0-2.94,0.04-4.37,0.11l2.07-17.29L37.18,4.63l-2.54,21.22c-7.89,2.22-14.63,6-20.24,11.33C4.8,46.32,0,59.17,0,75.74	c0,15.98,4.81,28.73,14.44,38.23c1.76,1.74,3.63,3.31,5.61,4.73l-2.89,24.18L31,144.54l2.3-19.22c3.33,1.07,6.86,1.85,10.6,2.33	l-2.17,18.18l13.84,1.65l2.31-19.33c2.59-0.1,4.99-0.3,7.22-0.59c3.46-0.45,6.78-1.08,9.95-1.9c2.49-0.68,5.19-1.6,8.12-2.78	c2.92-1.17,5.29-2.19,7.09-3.05V95.8h-2.78c-1.32,1.08-2.97,2.38-4.97,3.89c-2,1.51-4.27,2.99-6.8,4.44s-5.33,2.68-8.37,3.69	c-3.05,1.02-6.23,1.52-9.54,1.52c-3.95,0-7.57-0.57-10.86-1.73c-3.29-1.15-6.43-3.15-9.4-5.99c-2.73-2.57-4.96-6.05-6.69-10.43	c-1.73-4.38-2.6-9.55-2.6-15.51c0-6.28,0.9-11.55,2.71-15.81C32.74,55.6,35.1,52.15,38.03,49.54z" class="st0"/><g><linearGradient id="SVGID_2_" x1="67.113" x2="551.009" y1="120.951" y2="-74.446" gradientUnits="userSpaceOnUse"><stop offset="0" style="stop-color:#18172b"/><stop offset=".929" style="stop-color:#211e36"/></linearGradient><path d="M118.18,89.61l13.91-2.07c3.22-0.46,4.25-2.07,4.25-4.02c0-4.02-3.1-7.36-9.54-7.36 c-6.67,0-10.34,4.25-10.8,9.2l-13.56-2.87c0.92-8.85,9.08-18.62,24.25-18.62c17.93,0,24.6,10.11,24.6,21.49v27.82 c0,2.99,0.34,7.01,0.69,8.97h-14.02c-0.34-1.49-0.57-4.6-0.57-6.78c-2.87,4.48-8.28,8.39-16.67,8.39 c-12.07,0-19.42-8.16-19.42-17.01C101.28,96.62,108.75,90.99,118.18,89.61z M136.34,99.26v-2.53l-12.76,1.95 c-3.91,0.57-7.01,2.76-7.01,7.13c0,3.33,2.41,6.55,7.36,6.55C130.36,112.37,136.34,109.26,136.34,99.26z" class="st1"/><linearGradient id="SVGID_3_" x1="74.29" x2="558.186" y1="138.725" y2="-56.673" gradientUnits="userSpaceOnUse"><stop offset="0" style="stop-color:#18172b"/><stop offset=".929" style="stop-color:#211e36"/></linearGradient><path d="M174.96,103.52c0.34,4.48,3.68,8.62,10.34,8.62c5.06,0,7.47-2.64,7.47-5.63c0-2.53-1.72-4.6-6.09-5.52 l-7.47-1.72c-10.92-2.41-15.86-8.97-15.86-16.9c0-10.11,8.97-18.51,21.15-18.51c16.09,0,21.49,10.23,22.18,16.32l-12.76,2.87 c-0.46-3.33-2.87-7.59-9.31-7.59c-4.02,0-7.24,2.41-7.24,5.63c0,2.76,2.07,4.48,5.17,5.06l8.05,1.72 c11.15,2.3,16.78,9.08,16.78,17.36c0,9.2-7.13,18.62-21.95,18.62c-17.01,0-22.87-11.03-23.56-17.47L174.96,103.52z" class="st2"/><linearGradient id="SVGID_4_" x1="78.084" x2="561.98" y1="148.12" y2="-47.278" gradientUnits="userSpaceOnUse"><stop offset="0" style="stop-color:#18172b"/><stop offset=".929" style="stop-color:#211e36"/></linearGradient><path d="M234.95,122.14h-15.29V38.92h15.29V70.3c3.68-4.37,9.88-6.21,15.29-6.21c14.37,0,21.03,10,21.03,22.41v35.63 h-15.29V89.15c0-6.32-3.1-11.26-10.46-11.26c-6.44,0-10.23,4.83-10.57,11.03V122.14z" class="st3"/><linearGradient id="SVGID_5_" x1="96.329" x2="580.225" y1="193.303" y2="-2.095" gradientUnits="userSpaceOnUse"><stop offset="0" style="stop-color:#18172b"/><stop offset=".929" style="stop-color:#211e36"/></linearGradient><path d="M296.45,102.02c5.86,0,10.57,4.71,10.57,10.46s-4.71,10.46-10.57,10.46c-5.75,0-10.46-4.71-10.46-10.46 S290.7,102.02,296.45,102.02z" class="st4"/><linearGradient id="SVGID_6_" x1="98.38" x2="582.276" y1="198.382" y2="2.985" gradientUnits="userSpaceOnUse"><stop offset="0" style="stop-color:#18172b"/><stop offset=".929" style="stop-color:#211e36"/></linearGradient><path d="M322.54,143.98V65.59h14.83v6.9c2.53-4.37,8.85-8.16,17.36-8.16c16.55,0,26.09,12.64,26.09,29.42 c0,17.13-10.69,29.77-26.67,29.77c-7.82,0-13.56-3.1-16.32-6.9v27.36H322.54z M351.73,78c-7.82,0-14.14,5.86-14.14,15.86 s6.32,15.98,14.14,15.98c7.82,0,14.02-5.86,14.02-15.98C365.75,83.86,359.55,78,351.73,78z" class="st5"/><linearGradient id="SVGID_7_" x1="99.821" x2="583.717" y1="201.952" y2="6.554" gradientUnits="userSpaceOnUse"><stop offset="0" style="stop-color:#18172b"/><stop offset=".929" style="stop-color:#211e36"/></linearGradient><path d="M392.88,122.14V38.92h15.29v83.22H392.88z" class="st6"/><linearGradient id="SVGID_8_" x1="111.893" x2="595.79" y1="231.849" y2="36.451" gradientUnits="userSpaceOnUse"><stop offset="0" style="stop-color:#18172b"/><stop offset=".929" style="stop-color:#211e36"/></linearGradient><path d="M437.59,89.61l13.91-2.07c3.22-0.46,4.25-2.07,4.25-4.02c0-4.02-3.1-7.36-9.54-7.36 c-6.67,0-10.34,4.25-10.8,9.2l-13.56-2.87c0.92-8.85,9.08-18.62,24.25-18.62c17.93,0,24.6,10.11,24.6,21.49v27.82 c0,2.99,0.34,7.01,0.69,8.97h-14.02c-0.34-1.49-0.57-4.6-0.57-6.78c-2.87,4.48-8.28,8.39-16.67,8.39 c-12.07,0-19.43-8.16-19.43-17.01C420.7,96.62,428.17,90.99,437.59,89.61z M455.75,99.26v-2.53l-12.76,1.95 c-3.91,0.57-7.01,2.76-7.01,7.13c0,3.33,2.41,6.55,7.36,6.55C449.78,112.37,455.75,109.26,455.75,99.26z" class="st7"/><linearGradient id="SVGID_9_" x1="119.968" x2="603.864" y1="251.844" y2="56.446" gradientUnits="userSpaceOnUse"><stop offset="0" style="stop-color:#18172b"/><stop offset=".929" style="stop-color:#211e36"/></linearGradient><path d="M496.9,93.86c0,10.23,6.67,15.98,14.48,15.98c7.82,0,11.72-5.17,12.99-9.54l13.45,4.48 c-2.53,9.43-11.38,19.08-26.44,19.08c-16.67,0-29.77-12.64-29.77-30c0-17.47,12.87-30,29.31-30c15.4,0,24.14,9.54,26.55,19.08 l-13.68,4.6c-1.38-4.71-4.94-9.54-12.53-9.54C503.45,78,496.9,83.63,496.9,93.86z" class="st8"/><linearGradient id="SVGID_10_" x1="128.661" x2="612.557" y1="273.372" y2="77.974" gradientUnits="userSpaceOnUse"><stop offset="0" style="stop-color:#18172b"/><stop offset=".929" style="stop-color:#211e36"/></linearGradient><path d="M599.2,105.93c-2.87,9.77-11.84,17.93-25.75,17.93c-15.52,0-29.19-11.15-29.19-30.23 c0-18.05,13.33-29.77,27.82-29.77c17.47,0,27.93,11.15,27.93,29.31c0,2.18-0.23,4.48-0.23,4.71h-40.46 c0.34,7.47,6.67,12.87,14.25,12.87c7.13,0,11.03-3.56,12.87-8.62L599.2,105.93z M584.94,87.43c-0.23-5.63-3.91-11.15-12.64-11.15 c-7.93,0-12.3,5.98-12.64,11.15H584.94z" class="st9"/></g></svg>